/* XPM */
static char * QDS_xpm[] = {
"64 64 137 2",
"  	c None",
". 	c #FFFFFF",
"+ 	c #F2F2F2",
"@ 	c #828282",
"# 	c #2C2C2C",
"$ 	c #060606",
"% 	c #070707",
"& 	c #2F2F2F",
"* 	c #868686",
"= 	c #F5F5F5",
"- 	c #272727",
"; 	c #000000",
"> 	c #0F0F0F",
", 	c #383838",
"' 	c #848484",
") 	c #EEEEEE",
"! 	c #CDCDCD",
"~ 	c #575757",
"{ 	c #1B1B1B",
"] 	c #040404",
"^ 	c #030303",
"/ 	c #161616",
"( 	c #3B3B3B",
"_ 	c #707070",
": 	c #F9F9F9",
"< 	c #E1E1E1",
"[ 	c #242424",
"} 	c #434343",
"| 	c #808080",
"1 	c #7F7F7F",
"2 	c #3F3F3F",
"3 	c #282828",
"4 	c #E3E3E3",
"5 	c #8B8B8B",
"6 	c #8A8A8A",
"7 	c #818181",
"8 	c #666666",
"9 	c #232323",
"0 	c #171717",
"a 	c #CACACA",
"b 	c #C4C4C4",
"c 	c #090909",
"d 	c #606060",
"e 	c #646464",
"f 	c #2D2D2D",
"g 	c #F3F3F3",
"h 	c #FBFBFB",
"i 	c #333333",
"j 	c #010101",
"k 	c #A6A6A6",
"l 	c #A2A2A2",
"m 	c #373737",
"n 	c #FCFCFC",
"o 	c #FDFDFD",
"p 	c #858585",
"q 	c #4D4D4D",
"r 	c #BCBCBC",
"s 	c #DDDDDD",
"t 	c #A7A7A7",
"u 	c #696969",
"v 	c #ACACAC",
"w 	c #5A5A5A",
"x 	c #F8F8F8",
"y 	c #4E4E4E",
"z 	c #D1D1D1",
"A 	c #535353",
"B 	c #CCCCCC",
"C 	c #3A3A3A",
"D 	c #4A4A4A",
"E 	c #989898",
"F 	c #1A1A1A",
"G 	c #0B0B0B",
"H 	c #080808",
"I 	c #1F1F1F",
"J 	c #0A0A0A",
"K 	c #101010",
"L 	c #C1C1C1",
"M 	c #4B4B4B",
"N 	c #AFAFAF",
"O 	c #F6F6F6",
"P 	c #222222",
"Q 	c #212121",
"R 	c #050505",
"S 	c #B9B9B9",
"T 	c #C6C6C6",
"U 	c #202020",
"V 	c #FAFAFA",
"W 	c #585858",
"X 	c #0C0C0C",
"Y 	c #626262",
"Z 	c #1C1C1C",
"` 	c #FEFEFE",
" .	c #181818",
"..	c #262626",
"+.	c #9C9C9C",
"@.	c #878787",
"#.	c #525252",
"$.	c #D2D2D2",
"%.	c #494949",
"&.	c #5D5D5D",
"*.	c #363636",
"=.	c #6A6A6A",
"-.	c #686868",
";.	c #9E9E9E",
">.	c #BBBBBB",
",.	c #2E2E2E",
"'.	c #A8A8A8",
").	c #A4A4A4",
"!.	c #919191",
"~.	c #B4B4B4",
"{.	c #636363",
"].	c #444444",
"^.	c #424242",
"/.	c #DBDBDB",
"(.	c #888888",
"_.	c #3E3E3E",
":.	c #EFEFEF",
"<.	c #676767",
"[.	c #616161",
"}.	c #151515",
"|.	c #DEDEDE",
"1.	c #F1F1F1",
"2.	c #7B7B7B",
"3.	c #020202",
"4.	c #B3B3B3",
"5.	c #121212",
"6.	c #A1A1A1",
"7.	c #747474",
"8.	c #1E1E1E",
"9.	c #E2E2E2",
"0.	c #B7B7B7",
"a.	c #252525",
"b.	c #727272",
"c.	c #B0B0B0",
"d.	c #A0A0A0",
"e.	c #303030",
"f.	c #CECECE",
". . . . . . . . . . . . . . . . . . . . . . . . . . . . . . . . . . . . . . . . . . . . . . . . . . . . . . . . . . . . . . . . ",
". . . . . . . . . . . . . . . . . . . . . . . . . . . . . . . . . . . . . . . . . . . . . . . . . . . . . . . . . . . . . . . . ",
". . . . . . . . . . . . . . . . . . . . . . . . . . . . . . . . . . . . . . . . . . . . . . . . . . . . . . . . . . . . . . . . ",
". . . . . . . . . . . . . . . . . . . . . . . . . . . . . . . . . . . . . . . . . . . . . . . . . . . . . . . . . . . . . . . . ",
". . . . . . . . . . . . . . . . . . . . . . . . . . . . . . . . . . . . . . . . . . . . . . . . . . . . . . . . . . . . . . . . ",
". . . . . . . . . . . . . . . . . . . . . . . . . . . . . . . . . . . . . . . . . . . . . . . . . . . . . . . . . . . . . . . . ",
". . . . . . . . . . . . . . . . . . . . . . . . . . . . . . . . . . . . . . . . . . . . . . . . . . . . . . . . . . . . . . . . ",
". . . . . . . . . . . . . . . . . . . . . . . . . . . . . . . . . . . . . . . . . . . . . . . . . . . . . . . . . . . . . . . . ",
". . . . . . . . . . . . . . . . . . . . . . . . . . . . . . . . . . . . . . . . . . . . . . . . . . . . . . . . . . . . . . . . ",
". . . . . . . . . . . . . . . . . . . . . . . . . . . . . . . . . . . . . . . . . . . . . . . . . . . . . . . . . . . . . . . . ",
". . . . . . . . . . . . . . . . . . . . . . . . . . . . . . . . . . . . . . . . . . . . . . . . . . . . . . . . . . . . . . . . ",
". . . . . . . . . . . . . . . . . . . . . . . . . . . . . . . . . . . . . . . . . . . . . . . . . . . . . . . . . . . . . . . . ",
". . . . . . . . . . . . . . . . . . . . . . . . . . . . . . . . . . . . . . . . . . . . . . . . . . . . . . . . . . . . . . . . ",
". . . . . . . . . . . . . . . . . . . . . . . . . . . . . . . . . . . . . . . . . . . . . . . . . . . . . . . . . . . . . . . . ",
". . . . . . . . . . . . . . . . . . . . . . . . . . . . . . . . . . . . . . . . . . . . . . . . . . . . . . . . . . . . . . . . ",
". . . . . . . . . . . . . . . . . . . . . . . . . . . . . . . . . . . . . . . . . . . . . . . . . . . . . . . . . . . . . . . . ",
". . . . . . . . . . . . . . . . . . . . . . . . . . . . . . . . . . . . . . . . . . . . . . . . . . . . . . . . . . . . . . . . ",
". . . . . . . . . . . . . . . . . . . . . . . . . . . . . . . . . . . . . . . . . . . . . . . . . . . . . . . . . . . . . . . . ",
". . . . . . . . . . . . . . . . . . . . . . . . . . . . . . . . . . . . . . . . . . . . . . . . . . . . . . . . . . . . . . . . ",
". . . . . . . . . . . . . . . . . . . . . . . . . . . . . . . . . . . . . . . . . . . . . . . . . . . . . . . . . . . . . . . . ",
". . . . . . . . . . . . . . . . . . . . . . . . . . . . . . . . . . . . . . . . . . . . . . . . . . . . . . . . . . . . . . . . ",
". . . . . . . . . . . . . . . . . . . . . . . . . . . . . . . . . . . . . . . . . . . . . . . . . . . . . . . . . . . . . . . . ",
". . . . . . . . . . . . . . . . . . . . . . . . . . . . . . . . . . . . . . . . . . . . . . . . . . . . . . . . . . . . . . . . ",
". . . . . . . . . . . . . . . . . . . . . . . . . . . . . . . . . . . . . . . . . . . . . . . . . . . . . . . . . . . . . . . . ",
". . . . . . . . . . . . . . . . . . . . . . . . . . . . . . . . . . . . . . . . . . . . . . . . . . . . . . . . . . . . . . . . ",
". . . . . . . . . . + @ # $ % & * = . . . . - ; ; ; ; > , ' ) . . . . . ! ~ { ] ^ / ( _ : . . . . . . . . . . . . . . . . . . . ",
". . . . . . . . . < [ ; } | 1 2 ; 3 4 . . . - ; 5 6 7 8 9 ; 0 a . . . b $ c d * @ e f ; g . . . . . . . . . . . . . . . . . . . ",
". . . . . . . . h i j k . . . . l j m n . . - ; . . . . o p ; 0 ) . . q ; r . . . . . s h . . . . . . . . . . . . . . . . . . . ",
". . . . . . . . t ; u . . . . . . e ; v . . - ; . . . . . . w ; * . . # ; x . . . . . . . . . . . . . . . . . . . . . . . . . . ",
". . . . . . . . y ; z . . . . . . ! ; A . . - ; . . . . . . B ; C . . D ; E . . . . . . . . . . . . . . . . . . . . . . . . . . ",
". . . . . . . . F G o . . . . . . n H I . . - ; . . . . . . o J K . . L ^ ; M N O . . . . . . . . . . . . . . . . . . . . . . . ",
". . . . . . . . ^ P . . . . . . . . Q R . . - ; . . . . . . . P j . . . S I ; ; G w T . . . . . . . . . . . . . . . . . . . . . ",
". . . . . . . . ^ 9 . . . . . . . . P ^ . . - ; . . . . . . . U H . . . . V N W X ; ; Y V . . . . . . . . . . . . . . . . . . . ",
". . . . . . . . Z X ` . . . . . . ` G  .. . - ; . . . . . . o c ... . . . . . . = +. .; @.. . . . . . . . . . . . . . . . . . . ",
". . . . . . . . #.; $.. . . . . . z ; %.. . - ; . . . . . . B ; &.. . . . . . . . . ! ; *.. . . . . . . . . . . . . . . . . . . ",
". . . . . . . . v ; =.. . . . . . -.; ;.. . - ; . . . . . . &.; >.. . . . . . . . . V ; ,.. . . . . . . . . . . . . . . . . . . ",
". . . . . . . . n , j '.. . . . ).j # : . . - ; . . . . o 6 ; D ` . . !.s . . . . . ~.; {.. . . . . . . . . . . . . . . . . . . ",
". . . . . . . . . 4 [ ; ].7 | ^.; Q /.. . . - ; 5 5 (._ - ; _.:.. . . - ; & <.' (.[.H }.|.. . . . . . . . . . . . . . . . . . . ",
". . . . . . . . . . 1.2.[ 3.; ; % 4.` . . . - ; ; ; ; 5.].6.n . . . . r 7._. .^ 3.8.<.9.. . . . . . . . . . . . . . . . . . . . ",
". . . . . . . . . . . . . . . 0.a.; 9 b.c.x . . . . . . . . . . . . . . . . . . . . . . . . . . . . . . . . . . . . . . . . . . ",
". . . . . . . . . . . . . . . . V d.e.; y ` . . . . . . . . . . . . . . . . . . . . . . . . . . . . . . . . . . . . . . . . . . ",
". . . . . . . . . . . . . . . . . . ` f.) . . . . . . . . . . . . . . . . . . . . . . . . . . . . . . . . . . . . . . . . . . . ",
". . . . . . . . . . . . . . . . . . . . . . . . . . . . . . . . . . . . . . . . . . . . . . . . . . . . . . . . . . . . . . . . ",
". . . . . . . . . . . . . . . . . . . . . . . . . . . . . . . . . . . . . . . . . . . . . . . . . . . . . . . . . . . . . . . . ",
". . . . . . . . . . . . . . . . . . . . . . . . . . . . . . . . . . . . . . . . . . . . . . . . . . . . . . . . . . . . . . . . ",
". . . . . . . . . . . . . . . . . . . . . . . . . . . . . . . . . . . . . . . . . . . . . . . . . . . . . . . . . . . . . . . . ",
". . . . . . . . . . . . . . . . . . . . . . . . . . . . . . . . . . . . . . . . . . . . . . . . . . . . . . . . . . . . . . . . ",
". . . . . . . . . . . . . . . . . . . . . . . . . . . . . . . . . . . . . . . . . . . . . . . . . . . . . . . . . . . . . . . . ",
". . . . . . . . . . . . . . . . . . . . . . . . . . . . . . . . . . . . . . . . . . . . . . . . . . . . . . . . . . . . . . . . ",
". . . . . . . . . . . . . . . . . . . . . . . . . . . . . . . . . . . . . . . . . . . . . . . . . . . . . . . . . . . . . . . . ",
". . . . . . . . . . . . . . . . . . . . . . . . . . . . . . . . . . . . . . . . . . . . . . . . . . . . . . . . . . . . . . . . ",
". . . . . . . . . . . . . . . . . . . . . . . . . . . . . . . . . . . . . . . . . . . . . . . . . . . . . . . . . . . . . . . . ",
". . . . . . . . . . . . . . . . . . . . . . . . . . . . . . . . . . . . . . . . . . . . . . . . . . . . . . . . . . . . . . . . ",
". . . . . . . . . . . . . . . . . . . . . . . . . . . . . . . . . . . . . . . . . . . . . . . . . . . . . . . . . . . . . . . . ",
". . . . . . . . . . . . . . . . . . . . . . . . . . . . . . . . . . . . . . . . . . . . . . . . . . . . . . . . . . . . . . . . ",
". . . . . . . . . . . . . . . . . . . . . . . . . . . . . . . . . . . . . . . . . . . . . . . . . . . . . . . . . . . . . . . . ",
". . . . . . . . . . . . . . . . . . . . . . . . . . . . . . . . . . . . . . . . . . . . . . . . . . . . . . . . . . . . . . . . ",
". . . . . . . . . . . . . . . . . . . . . . . . . . . . . . . . . . . . . . . . . . . . . . . . . . . . . . . . . . . . . . . . ",
". . . . . . . . . . . . . . . . . . . . . . . . . . . . . . . . . . . . . . . . . . . . . . . . . . . . . . . . . . . . . . . . ",
". . . . . . . . . . . . . . . . . . . . . . . . . . . . . . . . . . . . . . . . . . . . . . . . . . . . . . . . . . . . . . . . ",
". . . . . . . . . . . . . . . . . . . . . . . . . . . . . . . . . . . . . . . . . . . . . . . . . . . . . . . . . . . . . . . . ",
". . . . . . . . . . . . . . . . . . . . . . . . . . . . . . . . . . . . . . . . . . . . . . . . . . . . . . . . . . . . . . . . ",
". . . . . . . . . . . . . . . . . . . . . . . . . . . . . . . . . . . . . . . . . . . . . . . . . . . . . . . . . . . . . . . . ",
". . . . . . . . . . . . . . . . . . . . . . . . . . . . . . . . . . . . . . . . . . . . . . . . . . . . . . . . . . . . . . . . "};
