/* XPM */
static char * HRS_xpm[] = {
"64 64 2 1",
" 	c None",
".	c #EF0000",
"                                                                ",
"                                                                ",
"                                                                ",
"                                                                ",
"                                                                ",
"                                                                ",
"                                                                ",
"                                                                ",
"            ...                                                 ",
"           .....                               .......          ",
"            ....             ...              .........         ",
"            .....       ..........           ..........         ",
"             .....     ............         ...........         ",
"              ....     .............       .....     .          ",
"      ...     ....     .....   .....       ....                 ",
"     .....    .....     ....    ....       ....                 ",
"      .............     ...     ....       .....                ",
"      .............     ....   .....       .......              ",
"      .............     ...........         .......             ",
"       ............     ...........           ......            ",
"       ....    ....     ..........             ......           ",
"       ....    ....     ..........               ....           ",
"       ...     ....     ............             ....           ",
"       ...    ....      .............             ....          ",
"        ..    ....      .....  .......        .......           ",
"              ....       ....     ....       ........           ",
"              ....        ..        .        ........           ",
"               ..                             ......            ",
"                                               ...              ",
"                                                                ",
"                                                                ",
"                                                                ",
"                                                                ",
"                                                                ",
"                                                                ",
"                                                                ",
"                                                                ",
"                                                                ",
"                                                                ",
"                                                                ",
"                                                                ",
"                                                                ",
"                                                                ",
"                                                                ",
"                                                                ",
"                                                                ",
"                                                                ",
"                                                                ",
"                                                                ",
"                                                                ",
"                                                                ",
"                                                                ",
"                                                                ",
"                                                                ",
"                                                                ",
"                                                                ",
"                                                                ",
"                                                                ",
"                                                                ",
"                                                                ",
"                                                                ",
"                                                                ",
"                                                                ",
"                                                                "};
